<svg width="818" height="1177" viewBox="0 0 818 1177" fill="none" xmlns="http://www.w3.org/2000/svg">
<path fill-rule="evenodd" clip-rule="evenodd" d="M96.7743 1152.91C158.006 1154.63 215.849 1156.52 276.963 1152.91C374.759 1146.86 661.757 1157.77 724.842 1152.91C729.603 1152.55 745.975 1157.77 746.316 1152.91C749.089 1119.1 750.887 777.068 742.648 753.533C734.409 729.999 693.741 616.865 641.922 564.111C627.473 549.859 605.485 544.338 593.339 527.868C582.867 509.909 583.68 499.368 573.338 489.919C568.85 485.819 558.266 484.156 550.401 478.465C542.493 470.606 549.98 453.306 546.734 442.362C540.044 415.036 515.397 397.505 488.458 393.374C451.016 384.415 411.488 392.886 393.554 422.296C386.878 433.244 390.431 446.551 382.22 464.093C382.806 477.35 367.329 480.553 358.078 485.806L339.707 504.373C283.107 536.219 216.523 553.416 166.93 596.202C124.766 638.975 82.8282 688.413 64.1202 746.283C60.2472 762.052 58.9832 778.35 57.3782 794.463C52.7962 841.551 40.0372 887.254 29.0572 933.121C16.5372 990.91 4.86649 1052.26 21.7405 1110.59C26.6055 1122.94 85.6993 1152.33 96.7743 1152.91Z" fill="white"/>
<path fill-rule="evenodd" clip-rule="evenodd" d="M390.309 427.005C390.799 425.404 392.91 425.854 393.07 427.375C394.66 442.455 392.66 458.215 390.74 473.195C389.82 480.425 389.289 487.945 387.889 495.074C387.709 495.835 387.539 496.604 387.379 497.365C387.839 498.184 389.2 499.104 389.849 499.734L392.672 502.479L398.329 507.955C409.4 518.675 420.469 529.404 431.539 540.125L447.789 555.875C453.36 561.274 459.69 566.445 464.579 572.465C467.23 575.734 467.829 579.744 465.219 583.244C463.929 584.974 461.61 586.234 459.259 586.494C460.179 587.774 460.889 589.224 461.339 590.835C462.259 594.115 458.94 598.144 455.41 596.774C451.4 595.234 448.089 592.474 444.009 591.154C439.889 589.814 435.41 589.555 431.139 590.274C429.179 590.604 427.259 591.095 425.389 591.715C445.4 600.925 467.049 606.215 489.129 606.974C493.629 607.125 498.12 607.064 502.589 606.765C510.11 606.274 517.579 605.135 524.919 603.295C530.69 601.845 536.4 600.024 541.94 597.824C544.66 596.744 547.349 595.555 549.95 594.205L550.178 594.07C550.766 593.703 561.631 587.541 561.82 586.615C562.009 585.689 562.01 585.367 561.656 584.561C561.302 583.754 560.322 583.199 560.322 583.199C556.965 581.764 553.487 580.428 549.82 580.404C541.379 580.354 532.169 586.595 525.19 590.845C517.52 595.515 510.469 600.974 503.089 606.035C502.919 606.154 502.73 606.205 502.549 606.205C501.77 606.205 501.049 605.244 501.549 604.494C506.838 596.706 513.978 590.222 521.445 584.561L524.455 582.305C531.294 577.204 539.294 571.555 547.61 570.324C557.799 568.824 568.44 575.175 577.53 578.894L593.629 585.484C596.499 586.654 599.62 587.654 602.509 588.984L595.763 567.875C592.392 557.32 589.029 546.761 585.7 536.195L585.054 534.125C581.737 523.4 578.693 512.243 573.169 502.445C571.849 500.095 570.339 497.885 568.849 495.654C567.299 493.345 566.719 490.795 564.77 488.734C560.91 484.644 555.379 482.244 550.099 480.675C548.809 480.295 549.19 478.595 550.4 478.465C555.818 477.894 560.985 479.158 565.881 481.443L567.916 482.414C572.547 484.605 577.061 486.642 580.499 490.574C588.338 499.554 592.409 510.861 596.15 522.019L597.15 525.015C598.549 524.555 608.059 527.455 609.249 528.144C644.9 543.215 672.36 571.274 692.44 604.154C714.44 640.184 726.419 681.354 736.309 722.095C739.361 734.668 742.28 747.28 745.084 759.92C732.591 764.727 719.313 767.242 707.618 774.014C703.163 776.593 707.187 783.509 711.655 780.922C722.609 774.58 735.086 772.237 746.811 767.783C753.168 797.046 758.823 826.469 763.559 856.015C778.11 946.695 787.299 1038.85 786.719 1130.77C786.709 1132.81 786.11 1135.07 784.999 1137.02C785.65 1136.71 786.16 1136.32 786.45 1135.87C790.139 1130.07 799.389 1135.45 795.679 1141.27L795.137 1142.11C792.353 1146.4 789.754 1149.68 784.86 1152.1C779.929 1154.55 774.589 1154.96 769.15 1155.1C750.66 1155.58 732.157 1155.9 713.648 1156.13C711.11 1136.33 710.078 1116.34 706.581 1096.66C705.682 1091.6 697.971 1093.74 698.867 1098.79C702.244 1117.79 703.325 1137.09 705.682 1156.22C666.112 1156.65 626.52 1156.65 586.98 1156.77C533.395 1156.92 479.817 1156.81 426.234 1156.78L403.27 1156.77C341.37 1156.77 279.469 1156.57 217.57 1156.16L202.849 1156.06C196.993 1121.54 193.007 1086.72 192.933 1051.64C192.922 1046.5 184.922 1046.49 184.933 1051.64C185.007 1086.68 188.949 1121.5 194.751 1156.02C180.095 1155.95 165.446 1156 150.789 1156.52L143.329 1156.79C128.403 1157.3 113.447 1157.62 98.549 1156.43C82.009 1155.1 65.28 1152.06 50.45 1144.27C43.771 1140.75 37.89 1136.26 32.864 1130.97C37.973 1128 43.155 1125.15 48.104 1121.91C52.395 1119.11 48.392 1112.18 44.066 1115.01C38.733 1118.5 33.127 1121.54 27.636 1124.76C23.66 1119.46 20.397 1113.57 17.919 1107.22C14.009 1097.18 12.499 1086.39 11.189 1075.77C9.64002 1063.27 8.99902 1050.65 8.99902 1038.06C8.99902 1011.56 11.789 985.135 15.68 958.955C19.4009 933.874 24.3194 908.995 29.5184 884.196L30.229 880.814C35.359 856.434 40.249 831.984 46.129 807.774C51.566 785.387 57.849 763.105 65.337 741.254C72.002 745.375 78.977 748.98 85.538 753.273C89.859 756.101 93.872 749.177 89.576 746.366C82.576 741.785 75.11 737.978 68.046 733.502C76.419 710.104 86.247 687.252 98.03 665.365C121.629 621.535 153.43 582.324 194.16 553.385C214.549 538.904 236.919 527.055 260.41 518.434C284.36 509.635 309.179 504.814 334.559 502.835C335.284 502.778 335.69 503.448 335.661 504.069L335.65 504.184L336.65 504.345C337.02 501.835 337.78 499.404 339.23 497.175C342.53 492.095 348.789 488.835 353.789 485.715L354.974 484.978C360.923 481.29 367.201 477.658 374.12 476.365C374.36 476.324 374.509 476.574 374.349 476.765C369.786 481.996 363.952 485.993 358.605 490.418L357.376 491.443C352.945 495.09 346.764 499.229 346.599 505.324C346.41 512.505 347.879 519.974 348.41 527.135C348.94 534.274 349.309 541.404 349.499 548.564C350.19 574.215 349.36 599.875 347.089 625.425L357.128 618.704C372.752 608.245 388.428 597.816 404.429 588.024C414.11 582.095 424.99 577.024 436.589 577.255C439.839 577.314 443.509 577.785 447.03 578.785C443.24 575.195 439.61 571.375 435.9 567.765C429.789 561.814 423.679 555.865 417.57 549.925L399.953 532.765L382.329 515.604C376.87 510.274 370.469 505.365 371.049 496.965C371.52 490.265 374.929 483.595 377.259 477.135C377.589 476.205 377.889 475.285 378.169 474.375C382.87 458.755 385.539 442.564 390.309 427.005ZM618 1097.2C614.356 1093.55 608.698 1099.21 612.344 1102.86L614.272 1104.78C617.492 1107.99 620.684 1111.3 622.912 1115.27L623.239 1115.87C625.64 1120.43 632.548 1116.39 630.146 1111.83C627.177 1106.2 622.454 1101.66 618 1097.2ZM461.868 1096.17C450.267 1093.96 439.086 1093.96 427.485 1096.17C422.434 1097.14 424.573 1104.85 429.612 1103.89C439.758 1101.95 449.594 1101.95 459.741 1103.89C464.772 1104.85 466.927 1097.14 461.868 1096.17ZM305.196 1015.53C300.204 1014.27 298.074 1021.98 303.07 1023.24L305.53 1023.86C313.891 1025.93 321.854 1027.47 330.54 1025.55C335.499 1024.45 333.494 1016.93 328.61 1017.79L328.413 1017.83C320.376 1019.61 312.972 1017.5 305.196 1015.53ZM583.441 963.567C579.747 959.976 574.084 965.627 577.784 969.223C582.401 973.713 587.842 977.125 594.436 977.307C599.509 977.449 599.581 969.687 594.663 969.319L594.436 969.307C590.017 969.184 586.496 966.538 583.441 963.567ZM112.616 942.201C117.222 939.898 113.175 932.996 108.579 935.294L80.931 949.117V949.117C76.325 951.42 80.372 958.324 84.968 956.025L112.616 942.201V942.201ZM658.948 943.964C653.798 943.819 653.802 951.819 658.948 951.964C663.787 952.099 668.746 953.932 673.057 956.025C677.669 958.265 681.73 951.369 677.095 949.117C671.459 946.381 665.272 944.14 658.948 943.964ZM400.616 905.338C404.85 902.461 400.852 895.525 396.578 898.43C390.746 902.392 385.462 907.075 379.723 911.157L378.146 912.254C373.912 915.131 377.91 922.065 382.184 919.162C388.545 914.839 394.255 909.659 400.616 905.338ZM698.116 847.195C692.968 847.193 692.96 855.193 698.116 855.195L699.092 855.192C703.341 855.168 707.82 855.051 711.771 856.749L712.225 856.953C716.857 859.135 720.922 852.24 716.263 850.046C710.47 847.318 704.413 847.198 698.116 847.195ZM253.836 841.48L254.508 841.228C259.318 839.501 257.244 831.767 252.381 833.515C245.053 836.148 239.352 841.121 232.995 845.437C228.759 848.314 232.757 855.248 237.032 852.346C242.509 848.626 247.606 843.916 253.836 841.48V841.48ZM553.904 820.668L554.983 820.09C559.563 817.733 555.52 810.828 550.946 813.182C547.315 815.05 544.066 817.536 540.504 819.516L539.425 820.094C534.846 822.45 538.888 829.355 543.463 827.002C547.094 825.133 550.343 822.647 553.904 820.668V820.668ZM432.201 743.18L431.377 742.384C427.695 738.779 422.034 744.432 425.72 748.041C434.926 757.051 445.81 763.892 456.789 770.506L458.786 771.706C463.211 774.361 467.238 767.447 462.824 764.798L459.893 763.036C450.132 757.15 440.484 751.073 432.201 743.18V743.18ZM210.819 735.711C213.921 731.683 207.175 727.741 204.022 731.534L203.911 731.673C200.682 735.865 196.85 739.66 192.846 743.124L192.093 743.769C189.709 745.797 185.37 750.142 182.021 750.428C176.929 750.861 176.883 758.865 182.021 758.428C187.203 757.987 191.662 754.34 195.577 751.215C201.275 746.668 206.372 741.483 210.819 735.711ZM636.432 706.568C640.149 703.076 634.658 697.518 630.908 700.793L630.776 700.912C623.829 707.438 613.836 709.189 604.893 711.402C599.898 712.64 602.014 720.356 607.02 719.117L611.094 718.111C620.233 715.831 629.403 713.174 636.432 706.568ZM477.996 656.107C473.004 654.838 470.874 662.552 475.87 663.821C484.355 665.977 492.392 668.764 500.257 672.634C504.861 674.898 508.919 668.002 504.295 665.726C495.833 661.562 487.132 658.429 477.996 656.107ZM559.719 487.465C559.599 487.105 559.98 486.695 560.349 486.824C569.327 490.171 564.554 501.93 561.765 508.968L561.259 510.255C556.889 521.535 550.78 532.515 544.12 542.615C537.15 553.185 529.41 563.305 521.03 572.805C517.394 576.929 513.624 580.935 509.726 584.822L508.259 586.274C504.32 590.145 499.24 596.945 493.129 596.195C486.549 595.404 482.879 588.375 487.679 583.035C491.07 579.255 495.77 576.244 499.559 572.805C503.32 569.404 506.96 565.895 510.509 562.285C517.77 554.875 524.65 547.045 530.94 538.795C537.023 530.817 542.845 522.618 548.138 514.094L549.19 512.385C553.219 505.755 562.52 496.005 559.719 487.465ZM241.64 571.263C237.378 568.349 233.372 575.279 237.602 578.17C245.38 583.486 252.223 589.926 260.642 594.298C265.15 596.64 269.159 589.929 264.84 587.478L264.68 587.391C256.267 583.02 249.414 576.575 241.64 571.263Z" fill="black"/>
<path fill-rule="evenodd" clip-rule="evenodd" d="M683.581 283.192C683.183 260.79 682.743 237.94 679.413 215.756C676.157 194.068 667.2 174.464 651.808 158.715C619.115 125.262 571.725 117.091 527.613 109.603L452.194 96.7999C429.185 92.8949 404.638 86.6529 381.391 92.1909C369.936 94.9199 360.208 101.26 351.317 108.761C342.747 115.991 333.533 123.755 327.726 133.482C321.909 143.223 319.908 154.61 318.017 165.627C315.884 178.048 314.227 190.566 313.05 203.114C310.691 228.254 310.369 253.583 312.08 278.775C312.909 290.994 314.228 303.178 315.912 315.308C316.747 321.323 317.691 327.323 318.757 333.302C319.071 335.065 319.31 337.017 319.632 338.989C317.253 345.755 315.901 352.762 316.01 359.739C316.331 380.291 333.678 393.23 351.166 400.177C361.306 404.205 371.907 406.942 381.87 411.442C392.351 416.175 399.485 423.848 406.651 432.601C420.318 449.295 435.741 464.299 453.352 476.817C490.69 503.358 537.982 515.911 583.286 506.383C594.156 504.097 605.122 500.547 614.893 495.198C625.209 489.551 632.966 481.368 639.48 471.693C651.575 453.732 660.249 433.507 666.811 412.926C673.504 391.932 678.255 370.9 680.846 349.009C683.428 327.189 683.972 305.147 683.581 283.192V283.192Z" fill="white"/>
<path fill-rule="evenodd" clip-rule="evenodd" d="M442.911 18.7638C474.121 14.4708 517.198 28.4238 532.741 56.5578C606.947 39.0638 700.54 38.4908 761.701 96.7278C825.52 165.81 745.36 256.895 692.207 277.431C696.077 296.238 690.043 416.723 647.348 470.466C613.464 516.002 534.557 537.017 498.044 482.628L497.759 482.179C493.848 475.898 497.217 476.099 501.232 480.772C536.986 512.214 585.599 512.751 623.06 479.569C693.268 418.919 686.029 270.209 652.621 184.178C557.491 173.73 455.637 202.563 389.932 274.172L394.375 300.92C395.132 305.477 395.992 310.03 396.648 314.603C397.068 317.533 397.115 320.447 395.085 322.819C388.382 330.649 377.085 318.883 367.79 314.203C365.046 313.817 362.297 313.668 359.601 313.858C314.943 319.61 323.742 406.24 372.824 391.055C376.948 388.486 380.491 389.27 382.091 392.998C393.79 403.714 401.504 422.826 420.941 441.234C427.799 448.139 434.04 453.916 441.754 459.455C446.285 464.037 459.957 468.709 455.623 476.55C447.427 494.392 399.096 438.347 390.551 422.848C363.778 433.42 334.108 429.829 306.363 427.245C159.993 419.635 179.533 265.345 299.509 167.934C322.093 151.308 347.01 137.745 372.911 127.308C376.447 125.883 374.902 120.077 371.316 121.522C354.178 128.429 337.471 136.65 321.545 146.165L321.521 140.476C321.498 130.895 321.648 120.92 323.312 112.166C324.144 106.1 325.543 99.6208 327.697 94.7468C330.36 79.8038 372.075 28.5118 442.911 18.7638ZM357.648 333.746C359.908 331.599 364.127 334.159 366.139 334.095C371.284 334.799 376.172 336.972 379.984 339.654C382.501 341.064 384.265 342.388 385.739 343.606L385.779 343.595C385.768 343.595 385.754 343.606 385.742 343.609L385.881 343.703C388.027 345.228 395.884 353.817 390.92 351.507C390.55 351.026 390.171 350.564 389.789 350.111C389.748 350.173 389.691 350.234 389.623 350.293L389.902 350.707C394.121 357.054 386.837 350.367 385.716 348.591C385.663 348.634 385.603 348.663 385.544 348.694L387.003 350.471C387.207 350.723 387.368 350.924 387.501 351.094L387.809 351.392C392.687 356.186 392.839 360.501 387.172 353.412C387.395 353.746 387.574 354.1 387.599 354.414L387.935 354.843C392.384 360.576 388.765 358.54 386.554 356.091L386.369 355.881L386.407 355.938C388.464 359.107 384.383 356.883 383.661 355.188L383.631 355.111C382.845 354.47 382.361 353.751 382.196 353.569L382.165 353.538C378.339 349.618 372.793 346.301 368.082 344.794C367.399 344.664 366.708 344.56 366.01 344.486C363.177 343.854 360.313 343.421 357.419 343.187C357.065 343.145 356.706 342.885 356.438 342.549C352.062 342.402 353.413 340.608 355.228 340.275L355.26 340.27L354.9 340.239C352.091 339.965 350.173 338.957 353.013 338.339L353.373 338.267C353.329 338.198 353.29 338.129 353.252 338.06C350.82 337.793 352.407 335.429 353.757 336.001C353.189 334.144 355.785 335.071 356.109 334.795C356.356 334.521 356.663 334.279 356.84 334.266C357.622 333.714 357.243 333.764 357.648 333.746ZM372.528 303.681L371.958 304.014C371.497 304.283 371.023 304.462 370.547 304.567C371.219 304.853 371.883 305.162 372.54 305.492C372.53 305.088 372.522 304.686 372.522 304.283L372.528 303.681Z" fill="black"/>
<path fill-rule="evenodd" clip-rule="evenodd" d="M555.587 430.927C548.864 428.184 542.866 423.61 538.481 417.766C536.957 415.735 536.561 413.59 536.881 411.628C537.241 409.422 538.546 407.422 540.326 406.081C542.112 404.736 544.345 404.072 546.504 404.41C548.381 404.704 550.248 405.732 551.727 407.862L552.035 408.288C554.642 411.815 558.04 414.709 561.91 416.574C565.641 418.372 569.814 419.211 574.132 418.723C582.356 417.794 588.024 413.347 594.049 407.307C594.796 406.544 595.543 405.758 596.294 404.959C596.768 404.235 597.426 403.769 598.157 403.525C598.968 403.253 599.886 403.269 600.726 403.562C601.537 403.845 602.262 404.381 602.747 405.095C603.209 405.773 603.471 406.611 603.386 407.574C602.835 413.834 599.562 419.42 594.914 423.806C589.752 428.677 582.909 432.047 576.466 433.229C569.368 434.531 562.136 433.598 555.587 430.927V430.927ZM579.814 334.367C587.366 338.957 598.872 349.661 590.748 361.04C581.186 371.073 567.418 359.569 560.634 354.366C554.343 350.334 547.275 360.705 553.112 365.413C602.136 401.708 622.031 335.568 583.634 328.971C579.406 328.244 577.836 332.947 579.814 334.367ZM491.963 292.147C492.798 281.79 508.57 279.439 510.139 289.687C511.544 298.867 509.89 307.3 505.755 315.565C501.804 323.461 491.874 319.777 491.123 312.587C490.116 302.949 491.444 298.589 491.963 292.147ZM612.027 287.562C614.226 284.682 617.401 282.716 621.205 283.827C633.09 287.3 629.587 304.173 625.413 312.386C623.145 316.846 615.814 317.977 612.501 314.05C607.101 307.646 604.515 294.857 611.38 288.549C611.566 288.223 611.773 287.894 612.027 287.562ZM505.588 246.831L507.465 246.502C513.273 245.498 520.494 244.533 524.603 249.202C526.782 251.678 527.532 256.28 524.603 258.65C519.451 262.82 513.755 261.204 507.581 261.557C502.493 261.849 497.603 262.691 492.702 264.092C481.95 267.165 473.189 272.775 464.006 278.935C462.801 279.743 461.571 278.202 462.146 277.075C467.447 266.692 477.72 258.163 488.01 252.964C493.502 250.189 499.512 247.887 505.588 246.831ZM601.193 242.18L602.63 242.474C618.267 245.742 638.583 252.272 645.988 267.631C646.271 269.803 645.972 270.268 645.73 270.573L645.649 270.674C645.45 270.933 645.29 271.291 644.349 271.587C644.087 271.525 643.824 271.459 643.557 271.389C640.163 270.499 637.477 269.274 634.877 268.002L632.058 266.614C628.788 265.01 625.488 263.465 621.992 262.324C614.53 259.89 606.854 258.176 599.06 257.26C597.37 257.062 595.744 256.492 594.46 255.514C593.242 254.587 592.311 253.303 591.887 251.596C591.337 249.387 591.495 247.714 592.68 245.721C593.572 244.225 594.847 243.187 596.311 242.592C597.804 241.984 599.503 241.841 601.193 242.18Z" fill="black"/>
<path fill-rule="evenodd" clip-rule="evenodd" d="M630.53 374.241C621.479 370.009 611.751 367.49 601.757 366.597C597.435 366.21 588.945 364.989 584.348 367.808C582.198 369.128 580.381 370.972 578.94 373.224C578.378 372.447 577.638 371.785 577.17 370.945C574.653 366.423 559.205 366.329 554.541 366.713C543.481 367.623 532.716 370.22 522.578 374.586C504.377 382.426 489.087 398.715 493.895 419.395C494.575 422.324 497.856 423.463 500.559 422.957C518.778 419.542 536.997 416.126 555.217 412.711C559.446 411.919 563.676 411.126 567.905 410.333C571.73 409.616 576.418 409.389 580.048 407.739C581.508 408.363 583.134 408.759 584.87 409.103C606.791 413.457 628.74 417.681 650.675 421.97C653.305 422.485 656.755 421.151 657.227 418.237C660.375 398.793 647.992 382.405 630.53 374.241" fill="#B89415"/>
<path fill-rule="evenodd" clip-rule="evenodd" d="M662.09 311.432C659.262 319.128 654.958 327.14 649.695 333.617C628.401 351.649 607.71 341.665 597.204 317.226C593.212 299.955 603.811 281.351 615.042 268.646C631.262 252.389 657.733 260.921 665.191 280.247C665.644 282.751 665.918 285.249 666.049 287.739C665.894 295.83 664.919 302.745 662.09 310.432M457.41 295.911C485.462 262.544 537.942 260.76 536.603 312.115C530.577 377.119 429.106 361.164 457.41 295.911ZM670.913 268.076C669.93 266.411 668.839 264.8 667.648 263.259C667.208 262.997 666.955 260.673 665.337 260.501C643.71 236.642 605.717 250.179 591.989 273.953C589.482 276.959 587.437 280.478 585.929 284.196C572.403 281.715 556.634 282.197 544.054 287.306C531.58 254.734 493.815 251.826 468.928 265.743C453.449 273.356 443.412 289.299 428.358 298.057C392.969 300.604 354.988 292.675 320.238 301.552C292.832 307.25 315.742 321.127 320.338 311.866C353.101 302.186 391.916 310.366 425.933 308.185C429.47 314.168 436.253 319.064 443.013 318.855C450.314 383.576 544.698 372.844 547.954 315.311C551.647 309.472 556.24 303.884 562.814 300.246C565.331 299.725 567.762 299.048 569.984 298C573.782 297.464 579.634 299.074 583.128 302.236C595.097 374.052 664.052 365.688 676.375 302.774C676.62 302.524 677.305 301.586 677.831 300.081C682.049 294.504 692.375 292.431 690.725 283.016C689.256 273.599 677.364 273.711 670.913 268.076Z" fill="black"/>
</svg>
